# ProBuilder 4.5.2
# https://unity3d.com/unity/features/worldbuilding/probuilder
# 27.06.2022 18:36:51

mtllib ./hanger_road.mtl
o hanger_road

g hanger_road
v 0.03006579 -0.1171165 0
v 0.03006579 -0.1210228 0
v -0.03006579 -0.1210228 0
v -0.03006579 -0.1171165 0
v -0.03006579 0.09635177 0
v -0.03006579 0.1002581 0
v 0.03006579 0.1002581 0
v 0.03006579 0.09635177 0
v -0.09272119 -0.1134859 0
v -0.09272119 0.09272119 0
v -0.03423001 0.09272119 0
v -0.03423001 -0.1134859 0
v -0.09635177 0.09635177 0
v -0.03423001 0.1002581 0
v -0.03423001 0.09635177 0
v -0.1002581 0.1002581 0
v -0.09635177 -0.1171165 0
v -0.1002581 -0.1210228 0
v -0.03423001 -0.1171165 0
v -0.03423001 -0.1210228 0
v 0.09635177 -0.1171165 0
v 0.03423001 -0.1210228 0
v 0.03423001 -0.1171165 0
v 0.1002581 -0.1210228 0
v 0.09635177 0.09635177 0
v 0.1002581 0.1002581 0
v 0.03423001 0.09635177 0
v 0.03423001 0.1002581 0
v -0.03006579 -0.1134859 0
v -0.03006579 0.09272119 0
v 0.03006579 0.09272119 0
v 0.03006579 -0.1134859 0
v 0.03423001 -0.1134859 0
v 0.03423001 0.09272119 0
v 0.09272119 0.09272119 0
v 0.09272119 -0.1134859 0

vt 0.9314894 0.5078012
vt 0.9193116 0.4975791
vt 0.6640866 0.4824111
vt 0.9214864 0.504467
vt 0.9127764 0.4933714
vt 0.9216191 0.5091166
vt 0.6626577 0.7113444
vt 0.6662563 0.4946126
vt 0.667653 0.5121241
vt 0.6465052 0.492132
vt 0.6649653 0.496747
vt 0.6557353 0.501362
vt 0.6664997 0.497947
vt 0.9085498 0.4951972

vn 0 0 1

usemtl color_atlas
f 16/4/1 18/4/1 17/4/1
f 24/6/1 26/6/1 25/6/1
f 10/8/1 13/8/1 9/8/1
f 36/13/1 21/13/1 35/13/1
f 3/1/1 2/1/1 1/1/1
f 1/1/1 4/1/1 3/1/1
f 7/2/1 6/2/1 5/2/1
f 5/2/1 8/2/1 7/2/1
f 11/1/1 10/1/1 9/1/1
f 9/1/1 12/1/1 11/1/1
f 13/2/1 15/2/1 14/2/1
f 14/2/1 16/2/1 13/2/1
f 13/3/1 16/3/1 17/3/1
f 17/3/1 9/9/1 13/3/1
f 19/1/1 17/1/1 18/1/1
f 18/1/1 20/1/1 19/1/1
f 21/1/1 23/1/1 22/1/1
f 22/1/1 24/1/1 21/1/1
f 21/5/1 24/5/1 25/5/1
f 25/5/1 35/14/1 21/5/1
f 27/2/1 25/2/1 26/2/1
f 26/2/1 28/2/1 27/2/1
f 31/1/1 30/1/1 29/1/1
f 29/1/1 32/1/1 31/1/1
f 35/1/1 34/1/1 33/1/1
f 33/1/1 36/1/1 35/1/1
f 5/7/1 6/7/1 14/7/1
f 14/7/1 15/7/1 5/7/1
f 30/7/1 5/7/1 15/7/1
f 15/7/1 11/7/1 30/7/1
f 8/7/1 5/7/1 30/7/1
f 30/7/1 31/7/1 8/7/1
f 10/7/1 11/7/1 15/7/1
f 15/7/1 13/7/1 10/7/1
f 12/7/1 9/7/1 17/7/1
f 17/7/1 19/7/1 12/7/1
f 29/10/1 30/10/1 11/10/1
f 11/10/1 12/10/1 29/10/1
f 4/7/1 29/7/1 12/7/1
f 12/7/1 19/7/1 4/7/1
f 32/7/1 29/7/1 4/7/1
f 4/7/1 1/7/1 32/7/1
f 3/7/1 4/7/1 19/7/1
f 19/7/1 20/7/1 3/7/1
f 8/7/1 31/7/1 34/7/1
f 34/7/1 27/7/1 8/7/1
f 31/11/1 32/11/1 33/11/1
f 33/11/1 34/11/1 31/11/1
f 23/12/1 33/7/1 32/7/1
f 32/7/1 1/12/1 23/12/1
f 36/12/1 33/12/1 23/12/1
f 23/12/1 21/12/1 36/12/1
f 22/12/1 23/12/1 1/12/1
f 1/12/1 2/12/1 22/12/1
f 34/7/1 35/7/1 25/7/1
f 25/7/1 27/7/1 34/7/1
f 7/7/1 8/7/1 27/7/1
f 27/7/1 28/7/1 7/7/1

