# ProBuilder 4.5.2
# https://unity3d.com/unity/features/worldbuilding/probuilder
# 24.05.2022 20:29:06

mtllib ./Money.mtl
o Money

g Money
v -0.009999999 0.005578852 -0.003719535
v -0.009999999 0.009999999 -0.02492056
v -0.009999999 0.009999999 -0.01748149
v -0.009999999 0.005578851 0.003719535
v -0.009999999 -0.006306371 -0.003662357
v -0.009999999 -0.006306372 0.003776712
v -0.009999999 -0.009999999 -0.02188473
v -0.009999999 -0.009999999 -0.01444566
v 5.960464E-10 0.009999999 -0.02296134
v 0.009999999 0.009999999 -0.02376025
v 0.009999999 0.009999999 -0.01632118
v 0 0.009999999 -0.01552226
v 0.009999999 -0.00630637 -0.003818232
v 0.009999999 -0.009999999 -0.01813191
v 0.009999999 -0.009999999 -0.01069284
v 0.009999999 -0.00630637 0.003620837
v 0.009999999 0.005578851 -0.003719535
v 0.009999999 0.005578852 0.003719535
v 0 -0.009999999 -0.00628157
v 5.960464E-10 -0.009999999 0.001157499
v 1.413182E-10 -0.00630637 0.001934782
v 4.547283E-10 -0.00630637 0.009373851
v 0 0.005578852 0.003719535
v 5.960464E-10 0.005578852 -0.003719535
v -0.009999999 -0.009999999 0.003189285
v -0.009999999 0.009999999 0.003189285
v -0.009999999 0.009999999 0.1297999
v -0.009999999 -0.009999999 0.1297999
v 0.009999999 0.009999999 0.003189285
v 0.009999999 0.009999999 0.1297999
v 0.009999999 -0.009999999 0.003189285
v 0.009999999 -0.009999999 0.1297999
v -0.009999999 0.006257854 0.1295135
v -0.009999999 0.009999998 0.1478997
v -0.009999999 0.009999998 0.1553387
v -0.009999999 0.006257854 0.1369525
v -0.009999999 -0.007671932 0.1295135
v -0.009999999 -0.007671932 0.1369525
v -0.009999999 -0.01 0.1461915
v -0.009999999 -0.01 0.1536306
v 5.960464E-10 0.009999998 0.1404139
v 0.009999999 0.009999998 0.1500635
v 0.009999999 0.009999998 0.1575026
v 0 0.009999998 0.1478529
v 0.009999999 -0.007671932 0.1295135
v 0.009999999 -0.01 0.1560653
v 0.009999999 -0.01 0.1635044
v 0.009999999 -0.007671932 0.1369525
v 0.009999999 0.006257854 0.1295135
v 0.009999999 0.006257854 0.1369525
v 0 -0.01 0.143633
v 5.960464E-10 -0.01 0.1510721
v 6.293484E-11 -0.008072834 0.1295135
v 5.331116E-10 -0.007671932 0.1369525
v 0 0.006257854 0.1369525
v 5.960464E-10 0.008251896 0.1295135
v -0.01035441 -0.00243629 -0.01736478
v -0.01035441 0.002358959 -0.01736478
v -0.01035441 0.002358959 0.1488467
v -0.01035441 -0.00243629 0.1488467
v 0.01046381 0.002358959 -0.01736478
v 0.01046381 0.002358959 0.1488467
v 0.01046381 -0.00243629 -0.01736478
v 0.01046381 -0.00243629 0.1488467

vt 0.6023479 0.6800247
vt 0.6088659 0.6800247
vt 0.6088659 0.7004056
vt 0.6023479 0.7004056
vt 0.5848256 0.6800247
vt 0.5848256 0.7004056
vt 0.5793802 0.6800247
vt 0.5793802 0.7004056
vt 0.594123 0.6800247
vt 0.594123 0.7004056
vt 0.594123 0.6729375
vt 0.594123 0.6628181
vt 0.6088659 0.6628181
vt 0.6088659 0.6729376
vt 0.5793802 0.6628181
vt 0.5793802 0.6729375
vt 0.594123 0.7176122
vt 0.594123 0.7054995
vt 0.5793802 0.7054995
vt 0.5793802 0.7176122
vt 0.6088659 0.7054995
vt 0.6088659 0.7176122
vt 0.6062887 0.6800247
vt 0.6062887 0.7004056
vt 0.5822213 0.6800247
vt 0.5822214 0.7004056
vt 0.594123 0.668098
vt 0.6088659 0.668098
vt 0.5793802 0.668098
vt 0.594123 0.7128229
vt 0.5793802 0.7128229
vt 0.6088659 0.7128229
vt 0.8885412 0.9198766
vt 0.9184609 0.9198766
vt 0.9184609 0.9754777
vt 0.8885412 0.9754777

vn -1 0 0
vn 0 1 0
vn 1 0 0
vn 0 -1 0
vn -0.2896574 0.8893968 -0.3080566
vn -0.4370303 0.8203641 -0.3687915
vn -0.1422846 0.9584295 -0.2473217
vn -0.3352593 -0.8994843 0.2802305
vn -0.5389111 -0.7682991 0.3453858
vn -0.1105101 -0.9740661 0.1974406
vn -0.01998221 0.9763818 0.2139564
vn -9.076714E-08 0.9746046 0.2239328
vn -0.03996432 0.978159 0.20398
vn -0.008604234 -0.9754899 -0.2196646
vn -0.01720838 -0.9763751 -0.2153964
vn -9.076714E-08 -0.9746046 -0.2239328
vn 0.02191568 -0.9763045 -0.2139303
vn 0 -0.9789411 -0.204143
vn 0.04383136 -0.9736679 -0.2237176
vn 0.008943771 0.9754841 0.2196626
vn 0 0.9765196 0.2154283
vn 0.01788754 0.9744487 0.223897
vn 0.2567487 -0.908075 0.3193251
vn 0.2839128 -0.9284363 0.239582
vn 0.2295845 -0.8877137 0.3990682
vn 0.2598753 0.9125477 -0.2946912
vn 0.2960713 0.9361284 -0.1897508
vn 0.2236793 0.8889669 -0.3996316
vn 0.258148 -0.2292858 -0.9385028
vn 0.488409 -0.004197924 -0.8726047
vn 0 -0.4296045 -0.9030172
vn 0.2643149 0.2238992 0.9380867
vn 0.4986546 -0.007197848 0.8667709
vn 0 0.4296045 0.9030172
vn -0.2372331 0.2041724 0.9497547
vn -0.4510873 0.3834133 0.8059246
vn -4.48037E-10 0.00481076 0.9999884
vn -0.2430984 -0.1966505 -0.9498588
vn -0.4610084 -0.3812292 -0.8013336
vn 7.733652E-10 0.008303944 -0.9999655
vn 0 0 -1
vn 0 0 1
vn 0.1028536 -0.9862422 -0.1103195
vn 0.1658021 -0.9770997 -0.1333637
vn 0.03990515 -0.9953846 -0.08727536
vn 0.02079388 0.9881109 0.150397
vn 0.04158776 0.9858242 0.1625456
vn 0 0.9903976 0.1382483
vn 0.07383057 -0.9574922 0.2609785
vn 0 -0.9458163 0.3247021
vn 0.1476611 -0.9691681 0.1972548
vn 0.1817645 0.969113 -0.1659495
vn 0.1931797 0.9687846 -0.1553645
vn 0.1703494 0.9694414 -0.1765345
vn -0.1547415 0.9711207 -0.1764929
vn -0.1917715 0.9617223 -0.1957394
vn -0.1177116 0.9805191 -0.1572464
vn -0.1494966 -0.9431857 0.2445008
vn 0 -0.9838212 0.1791529
vn -0.2989931 -0.9025502 0.3098487
vn -0.05397771 0.988517 0.1247605
vn -0.1079554 0.9903562 0.08683457
vn 0 0.9866779 0.1626863
vn -0.03751977 -0.9899057 -0.1366454
vn -0.03534894 -0.9897786 -0.138162
vn -0.03969059 -0.9900327 -0.1351289

usemtl OptimizedMatVar01
f 8/15/8 20/12/9 22/11/8
f 6/16/10 8/15/8 22/11/8
f 21/11/29 5/16/30 1/19/29
f 24/18/31 21/11/29 1/19/29
f 22/11/32 16/14/33 18/21/32
f 23/18/34 22/11/32 18/21/32
f 6/16/35 22/11/36 23/18/35
f 4/19/37 6/16/35 23/18/35
f 13/14/38 21/11/39 24/18/38
f 17/21/40 13/14/38 24/18/38
f 3/3/1 2/2/1 1/1/1
f 1/1/1 4/4/1 3/3/1
f 4/4/1 1/1/1 5/5/1
f 5/5/1 6/6/1 4/4/1
f 6/6/1 5/5/1 7/7/1
f 7/7/1 8/8/1 6/6/1
f 11/3/2 10/2/2 9/9/2
f 9/9/2 12/10/2 11/3/2
f 12/10/2 9/9/2 2/7/2
f 2/7/2 3/8/2 12/10/2
f 15/8/3 14/7/3 13/5/3
f 13/5/3 16/6/3 15/8/3
f 16/6/3 13/5/3 17/1/3
f 17/1/3 18/4/3 16/6/3
f 18/4/3 17/1/3 10/2/3
f 10/2/3 11/3/3 18/4/3
f 8/8/4 7/7/4 19/9/4
f 19/9/4 20/10/4 8/8/4
f 20/10/4 19/9/4 14/2/4
f 14/2/4 15/3/4 20/10/4
f 14/13/5 19/12/6 21/11/5
f 21/11/5 13/14/7 14/13/5
f 4/19/11 23/18/12 12/17/11
f 12/17/11 3/20/13 4/19/11
f 9/17/14 10/22/15 17/21/14
f 17/21/14 24/18/16 9/17/14
f 24/18/17 1/19/18 2/20/17
f 2/20/17 9/17/19 24/18/17
f 23/18/20 18/21/21 11/22/20
f 11/22/20 12/17/22 23/18/20
f 20/12/23 15/13/24 16/14/23
f 16/14/23 22/11/25 20/12/23
f 19/12/26 7/15/27 5/16/26
f 5/16/26 21/11/28 19/12/26
f 27/3/1 26/2/1 25/7/1
f 25/7/1 28/8/1 27/3/1
f 30/3/2 29/2/2 26/7/2
f 26/7/2 27/8/2 30/3/2
f 32/8/3 31/7/3 29/2/3
f 29/2/3 30/3/3 32/8/3
f 28/8/4 25/7/4 31/2/4
f 31/2/4 32/3/4 28/8/4
f 31/13/41 25/15/41 26/20/41
f 26/20/41 29/22/41 31/13/41
f 28/15/42 32/13/42 30/22/42
f 30/22/42 27/20/42 28/15/42
f 35/3/1 34/2/1 33/23/1
f 33/23/1 36/24/1 35/3/1
f 36/24/1 33/23/1 37/25/1
f 37/25/1 38/26/1 36/24/1
f 38/26/1 37/25/1 39/7/1
f 39/7/1 40/8/1 38/26/1
f 43/3/2 42/2/2 41/9/2
f 41/9/2 44/10/2 43/3/2
f 44/10/2 41/9/2 34/7/2
f 34/7/2 35/8/2 44/10/2
f 47/8/3 46/7/3 45/25/3
f 45/25/3 48/26/3 47/8/3
f 48/26/3 45/25/3 49/23/3
f 49/23/3 50/24/3 48/26/3
f 50/24/3 49/23/3 42/2/3
f 42/2/3 43/3/3 50/24/3
f 40/8/4 39/7/4 51/9/4
f 51/9/4 52/10/4 40/8/4
f 52/10/4 51/9/4 46/2/4
f 46/2/4 47/3/4 52/10/4
f 46/13/43 51/12/44 53/27/43
f 53/27/43 45/28/45 46/13/43
f 40/15/46 52/12/47 54/27/46
f 54/27/46 38/29/48 40/15/46
f 36/31/49 55/30/50 44/17/49
f 44/17/49 35/20/51 36/31/49
f 49/32/52 56/30/53 41/17/52
f 41/17/52 42/22/54 49/32/52
f 56/30/55 33/31/56 34/20/55
f 34/20/55 41/17/57 56/30/55
f 55/30/58 50/32/59 43/22/58
f 43/22/58 44/17/60 55/30/58
f 52/12/61 47/13/62 48/28/61
f 48/28/61 54/27/63 52/12/61
f 51/12/64 39/15/65 37/29/64
f 37/29/64 53/27/66 51/12/64
f 53/27/41 37/29/41 33/31/41
f 33/31/41 56/30/41 53/27/41
f 45/28/41 53/27/41 56/30/41
f 56/30/41 49/32/41 45/28/41
f 54/27/42 48/28/42 50/32/42
f 50/32/42 55/30/42 54/27/42
f 38/29/42 54/27/42 55/30/42
f 55/30/42 36/31/42 38/29/42
f 59/35/1 58/34/1 57/33/1
f 57/33/1 60/36/1 59/35/1
f 62/35/2 61/34/2 58/33/2
f 58/33/2 59/36/2 62/35/2
f 64/36/3 63/33/3 61/34/3
f 61/34/3 62/35/3 64/36/3
f 60/36/4 57/33/4 63/34/4
f 63/34/4 64/35/4 60/36/4
f 63/34/41 57/33/41 58/36/41
f 58/36/41 61/35/41 63/34/41
f 60/33/42 64/34/42 62/35/42
f 62/35/42 59/36/42 60/33/42

